<mxfile host="app.diagrams.net" modified="2021-05-14T13:54:43.654Z" agent="5.0 (Windows NT 10.0; Win64; x64) AppleWebKit/537.36 (KHTML, like Gecko) Chrome/90.0.4430.212 Safari/537.36" etag="brlC0xUNqBTFx-lcc5yD" version="14.6.3" type="github">
  <diagram id="qnoL8s55e2lCcl9ub37X" name="Page-1">
    <mxGraphModel dx="1346" dy="794" grid="1" gridSize="10" guides="1" tooltips="1" connect="1" arrows="1" fold="1" page="1" pageScale="1" pageWidth="1169" pageHeight="827" math="0" shadow="0">
      <root>
        <mxCell id="0" />
        <mxCell id="1" parent="0" />
        <mxCell id="F4rKRSC1pj4bfYlLId7F-75" value="Контур системы сбора и обработки данных телеметрии" style="verticalLabelPosition=bottom;verticalAlign=top;html=1;shape=mxgraph.basic.rect;fillColor2=none;strokeWidth=4;size=20;indent=5;dashed=1;dashPattern=1 1;fontSize=12;opacity=30;fillColor=#b1ddf0;strokeColor=#10739e;" vertex="1" parent="1">
          <mxGeometry x="370" y="20" width="750" height="730" as="geometry" />
        </mxCell>
        <mxCell id="F4rKRSC1pj4bfYlLId7F-6" value="ClickHouse &lt;br&gt;Store Telemetry data" style="shadow=0;dashed=0;html=1;strokeColor=none;labelPosition=center;verticalLabelPosition=bottom;verticalAlign=top;outlineConnect=0;align=center;shape=mxgraph.office.databases.database;fillColor=#DA4026;opacity=30;" vertex="1" parent="1">
          <mxGeometry x="1010" y="265" width="70" height="100" as="geometry" />
        </mxCell>
        <mxCell id="F4rKRSC1pj4bfYlLId7F-21" style="edgeStyle=orthogonalEdgeStyle;rounded=0;orthogonalLoop=1;jettySize=auto;html=1;" edge="1" parent="1" source="F4rKRSC1pj4bfYlLId7F-7" target="F4rKRSC1pj4bfYlLId7F-20">
          <mxGeometry relative="1" as="geometry" />
        </mxCell>
        <mxCell id="F4rKRSC1pj4bfYlLId7F-7" value="SignalR" style="aspect=fixed;html=1;points=[];align=center;image;fontSize=12;image=img/lib/mscae/SignalR.svg;strokeWidth=5;gradientColor=none;opacity=30;" vertex="1" parent="1">
          <mxGeometry x="830" y="620" width="50" height="50" as="geometry" />
        </mxCell>
        <mxCell id="F4rKRSC1pj4bfYlLId7F-37" style="edgeStyle=orthogonalEdgeStyle;rounded=0;orthogonalLoop=1;jettySize=auto;html=1;" edge="1" parent="1" source="F4rKRSC1pj4bfYlLId7F-10" target="F4rKRSC1pj4bfYlLId7F-6">
          <mxGeometry relative="1" as="geometry" />
        </mxCell>
        <mxCell id="F4rKRSC1pj4bfYlLId7F-38" style="edgeStyle=orthogonalEdgeStyle;rounded=0;orthogonalLoop=1;jettySize=auto;html=1;" edge="1" parent="1" source="F4rKRSC1pj4bfYlLId7F-10" target="F4rKRSC1pj4bfYlLId7F-11">
          <mxGeometry relative="1" as="geometry" />
        </mxCell>
        <mxCell id="F4rKRSC1pj4bfYlLId7F-10" value="Kafka EventBus" style="aspect=fixed;perimeter=ellipsePerimeter;html=1;align=center;shadow=0;dashed=0;fontColor=#4277BB;labelBackgroundColor=#ffffff;fontSize=12;spacingTop=3;image;image=img/lib/ibm/blockchain/message_bus.svg;strokeWidth=5;gradientColor=none;opacity=30;" vertex="1" parent="1">
          <mxGeometry x="800" y="260" width="110" height="110" as="geometry" />
        </mxCell>
        <mxCell id="F4rKRSC1pj4bfYlLId7F-22" style="edgeStyle=orthogonalEdgeStyle;rounded=0;orthogonalLoop=1;jettySize=auto;html=1;" edge="1" parent="1" source="F4rKRSC1pj4bfYlLId7F-11" target="F4rKRSC1pj4bfYlLId7F-7">
          <mxGeometry relative="1" as="geometry">
            <mxPoint x="855" y="585" as="targetPoint" />
          </mxGeometry>
        </mxCell>
        <mxCell id="F4rKRSC1pj4bfYlLId7F-11" value="Kafka Consumer" style="fillColor=#c0f5a9;dashed=0;outlineConnect=0;strokeWidth=2;html=1;align=center;fontSize=12;verticalLabelPosition=bottom;verticalAlign=top;shape=mxgraph.eip.event_driven_consumer;opacity=30;" vertex="1" parent="1">
          <mxGeometry x="810" y="450" width="90" height="40" as="geometry" />
        </mxCell>
        <mxCell id="F4rKRSC1pj4bfYlLId7F-29" style="edgeStyle=orthogonalEdgeStyle;rounded=0;orthogonalLoop=1;jettySize=auto;html=1;" edge="1" parent="1" source="F4rKRSC1pj4bfYlLId7F-15" target="F4rKRSC1pj4bfYlLId7F-28">
          <mxGeometry relative="1" as="geometry" />
        </mxCell>
        <mxCell id="F4rKRSC1pj4bfYlLId7F-62" style="edgeStyle=orthogonalEdgeStyle;rounded=0;orthogonalLoop=1;jettySize=auto;html=1;" edge="1" parent="1" source="F4rKRSC1pj4bfYlLId7F-15" target="F4rKRSC1pj4bfYlLId7F-26">
          <mxGeometry relative="1" as="geometry" />
        </mxCell>
        <mxCell id="F4rKRSC1pj4bfYlLId7F-15" value="SmartTwin BackEnd" style="verticalLabelPosition=bottom;aspect=fixed;html=1;verticalAlign=top;strokeColor=none;align=center;outlineConnect=0;shape=mxgraph.citrix.web_server;gradientColor=none;opacity=30;" vertex="1" parent="1">
          <mxGeometry x="155.5" y="450" width="76.5" height="90" as="geometry" />
        </mxCell>
        <mxCell id="F4rKRSC1pj4bfYlLId7F-27" style="edgeStyle=orthogonalEdgeStyle;rounded=0;orthogonalLoop=1;jettySize=auto;html=1;" edge="1" parent="1" source="F4rKRSC1pj4bfYlLId7F-16" target="F4rKRSC1pj4bfYlLId7F-26">
          <mxGeometry relative="1" as="geometry" />
        </mxCell>
        <mxCell id="F4rKRSC1pj4bfYlLId7F-36" style="edgeStyle=orthogonalEdgeStyle;rounded=0;orthogonalLoop=1;jettySize=auto;html=1;startArrow=none;" edge="1" parent="1" source="F4rKRSC1pj4bfYlLId7F-43" target="F4rKRSC1pj4bfYlLId7F-10">
          <mxGeometry relative="1" as="geometry" />
        </mxCell>
        <mxCell id="F4rKRSC1pj4bfYlLId7F-52" style="edgeStyle=orthogonalEdgeStyle;rounded=0;orthogonalLoop=1;jettySize=auto;html=1;" edge="1" parent="1" source="F4rKRSC1pj4bfYlLId7F-16" target="F4rKRSC1pj4bfYlLId7F-50">
          <mxGeometry relative="1" as="geometry" />
        </mxCell>
        <mxCell id="F4rKRSC1pj4bfYlLId7F-16" value="Telemetry BackEnd" style="verticalLabelPosition=bottom;aspect=fixed;html=1;verticalAlign=top;strokeColor=none;align=center;outlineConnect=0;shape=mxgraph.citrix.web_server;gradientColor=none;opacity=30;" vertex="1" parent="1">
          <mxGeometry x="430" y="270" width="76.5" height="90" as="geometry" />
        </mxCell>
        <mxCell id="F4rKRSC1pj4bfYlLId7F-30" style="edgeStyle=orthogonalEdgeStyle;rounded=0;orthogonalLoop=1;jettySize=auto;html=1;" edge="1" parent="1" source="F4rKRSC1pj4bfYlLId7F-20" target="F4rKRSC1pj4bfYlLId7F-15">
          <mxGeometry relative="1" as="geometry" />
        </mxCell>
        <mxCell id="F4rKRSC1pj4bfYlLId7F-20" value="User Interface" style="shadow=0;dashed=0;html=1;strokeColor=none;fillColor=#4495D1;labelPosition=center;verticalLabelPosition=bottom;verticalAlign=top;align=center;outlineConnect=0;shape=mxgraph.veeam.2d.web_ui;opacity=30;" vertex="1" parent="1">
          <mxGeometry x="240" y="622.6" width="44.8" height="44.8" as="geometry" />
        </mxCell>
        <mxCell id="F4rKRSC1pj4bfYlLId7F-26" value="Postgres&lt;br&gt;Telemetry Metadata" style="shadow=0;dashed=0;html=1;strokeColor=none;labelPosition=right;verticalLabelPosition=middle;verticalAlign=middle;outlineConnect=0;align=left;shape=mxgraph.office.databases.database;fillColor=#DA4026;opacity=30;" vertex="1" parent="1">
          <mxGeometry x="438.25" y="450" width="60" height="90" as="geometry" />
        </mxCell>
        <mxCell id="F4rKRSC1pj4bfYlLId7F-28" value="Postgres&lt;br&gt;SmartTwin data" style="shadow=0;dashed=0;html=1;strokeColor=none;labelPosition=right;verticalLabelPosition=middle;verticalAlign=middle;outlineConnect=0;align=left;shape=mxgraph.office.databases.database;fillColor=#DA4026;opacity=30;" vertex="1" parent="1">
          <mxGeometry x="40" y="560" width="58.7" height="90" as="geometry" />
        </mxCell>
        <mxCell id="F4rKRSC1pj4bfYlLId7F-41" style="edgeStyle=orthogonalEdgeStyle;rounded=0;orthogonalLoop=1;jettySize=auto;html=1;" edge="1" parent="1" source="F4rKRSC1pj4bfYlLId7F-50" target="F4rKRSC1pj4bfYlLId7F-16">
          <mxGeometry relative="1" as="geometry">
            <mxPoint x="434" y="148" as="sourcePoint" />
          </mxGeometry>
        </mxCell>
        <mxCell id="F4rKRSC1pj4bfYlLId7F-45" style="edgeStyle=orthogonalEdgeStyle;rounded=0;orthogonalLoop=1;jettySize=auto;html=1;" edge="1" parent="1" source="F4rKRSC1pj4bfYlLId7F-43" target="F4rKRSC1pj4bfYlLId7F-26">
          <mxGeometry relative="1" as="geometry">
            <Array as="points">
              <mxPoint x="658" y="530" />
            </Array>
          </mxGeometry>
        </mxCell>
        <mxCell id="F4rKRSC1pj4bfYlLId7F-43" value="Parcing &amp;amp; computing" style="verticalLabelPosition=bottom;aspect=fixed;html=1;verticalAlign=top;strokeColor=none;align=center;outlineConnect=0;shape=mxgraph.citrix.web_server;gradientColor=none;opacity=30;" vertex="1" parent="1">
          <mxGeometry x="590" y="270" width="76.5" height="90" as="geometry" />
        </mxCell>
        <mxCell id="F4rKRSC1pj4bfYlLId7F-44" value="" style="edgeStyle=orthogonalEdgeStyle;rounded=0;orthogonalLoop=1;jettySize=auto;html=1;endArrow=none;" edge="1" parent="1" source="F4rKRSC1pj4bfYlLId7F-16" target="F4rKRSC1pj4bfYlLId7F-43">
          <mxGeometry relative="1" as="geometry">
            <mxPoint x="516.5" y="315" as="sourcePoint" />
            <mxPoint x="720" y="315" as="targetPoint" />
          </mxGeometry>
        </mxCell>
        <mxCell id="F4rKRSC1pj4bfYlLId7F-51" value="" style="group;labelPosition=center;verticalLabelPosition=bottom;align=center;verticalAlign=top;textDirection=ltr;" vertex="1" connectable="0" parent="1">
          <mxGeometry x="60.00000000000003" y="60" width="196.53999999999996" height="110" as="geometry" />
        </mxCell>
        <mxCell id="F4rKRSC1pj4bfYlLId7F-46" value="" style="aspect=fixed;pointerEvents=1;shadow=0;dashed=0;html=1;strokeColor=none;labelPosition=center;verticalLabelPosition=bottom;verticalAlign=top;align=center;fillColor=#00188D;shape=mxgraph.mscae.enterprise.device;opacity=30;" vertex="1" parent="F4rKRSC1pj4bfYlLId7F-51">
          <mxGeometry x="21.539999999999964" y="10" width="76.92" height="40" as="geometry" />
        </mxCell>
        <mxCell id="F4rKRSC1pj4bfYlLId7F-47" value="" style="aspect=fixed;pointerEvents=1;shadow=0;dashed=0;html=1;strokeColor=none;labelPosition=center;verticalLabelPosition=bottom;verticalAlign=top;align=center;fillColor=#00188D;shape=mxgraph.mscae.enterprise.device;opacity=30;" vertex="1" parent="F4rKRSC1pj4bfYlLId7F-51">
          <mxGeometry x="21.539999999999964" y="50" width="76.92" height="40" as="geometry" />
        </mxCell>
        <mxCell id="F4rKRSC1pj4bfYlLId7F-48" value="" style="aspect=fixed;pointerEvents=1;shadow=0;dashed=0;html=1;strokeColor=none;labelPosition=center;verticalLabelPosition=bottom;verticalAlign=top;align=center;fillColor=#00188D;shape=mxgraph.mscae.enterprise.device;opacity=30;" vertex="1" parent="F4rKRSC1pj4bfYlLId7F-51">
          <mxGeometry x="98.45999999999992" y="50" width="76.92" height="40" as="geometry" />
        </mxCell>
        <mxCell id="F4rKRSC1pj4bfYlLId7F-49" value="" style="aspect=fixed;pointerEvents=1;shadow=0;dashed=0;html=1;strokeColor=none;labelPosition=center;verticalLabelPosition=bottom;verticalAlign=top;align=center;fillColor=#00188D;shape=mxgraph.mscae.enterprise.device;opacity=30;" vertex="1" parent="F4rKRSC1pj4bfYlLId7F-51">
          <mxGeometry x="98.45999999999992" y="10" width="76.92" height="40" as="geometry" />
        </mxCell>
        <mxCell id="F4rKRSC1pj4bfYlLId7F-50" value="" style="verticalLabelPosition=bottom;verticalAlign=top;html=1;shape=mxgraph.basic.rect;fillColor2=none;strokeWidth=1;size=20;indent=5;gradientColor=none;opacity=30;" vertex="1" parent="F4rKRSC1pj4bfYlLId7F-51">
          <mxGeometry width="196.54" height="110" as="geometry" />
        </mxCell>
        <mxCell id="F4rKRSC1pj4bfYlLId7F-65" value="принимает или самостоятельно запрашивает показания с ПЛК или датчиков" style="shape=note2;boundedLbl=1;whiteSpace=wrap;html=1;size=25;verticalAlign=top;align=center;fontSize=12;strokeWidth=5;gradientColor=none;opacity=30;" vertex="1" parent="1">
          <mxGeometry x="450" y="40" width="220" height="80" as="geometry" />
        </mxCell>
        <mxCell id="F4rKRSC1pj4bfYlLId7F-70" value="Преобразует сырые данные, сопоставляет с информацией в метаданных, формирует сообщения для отправки в Kafka - ClickHouse" style="shape=note2;boundedLbl=1;whiteSpace=wrap;html=1;size=25;verticalAlign=top;align=center;fontSize=12;strokeWidth=5;gradientColor=none;opacity=30;" vertex="1" parent="1">
          <mxGeometry x="710" y="120" width="220" height="110" as="geometry" />
        </mxCell>
        <mxCell id="F4rKRSC1pj4bfYlLId7F-72" value="" style="endArrow=classic;html=1;fontSize=12;" edge="1" parent="1" source="F4rKRSC1pj4bfYlLId7F-65" target="F4rKRSC1pj4bfYlLId7F-16">
          <mxGeometry width="50" height="50" relative="1" as="geometry">
            <mxPoint x="520" y="490" as="sourcePoint" />
            <mxPoint x="570" y="440" as="targetPoint" />
          </mxGeometry>
        </mxCell>
        <mxCell id="F4rKRSC1pj4bfYlLId7F-73" value="" style="endArrow=classic;html=1;fontSize=12;" edge="1" parent="1" source="F4rKRSC1pj4bfYlLId7F-70" target="F4rKRSC1pj4bfYlLId7F-43">
          <mxGeometry width="50" height="50" relative="1" as="geometry">
            <mxPoint x="520" y="490" as="sourcePoint" />
            <mxPoint x="570" y="440" as="targetPoint" />
          </mxGeometry>
        </mxCell>
        <mxCell id="F4rKRSC1pj4bfYlLId7F-74" value="Контур SmartTwin" style="verticalLabelPosition=bottom;verticalAlign=top;html=1;shape=mxgraph.basic.rect;fillColor2=none;strokeWidth=5;size=20;indent=5;fontSize=12;opacity=30;dashed=1;dashPattern=1 1;fillColor=#d5e8d4;strokeColor=#82b366;" vertex="1" parent="1">
          <mxGeometry x="30" y="420" width="300" height="330" as="geometry" />
        </mxCell>
        <mxCell id="F4rKRSC1pj4bfYlLId7F-76" value="Датчики / ПЛК / Контроллеры&lt;br&gt;/ SCADA - системы" style="text;html=1;align=center;verticalAlign=middle;resizable=0;points=[];autosize=1;strokeColor=none;fontSize=12;" vertex="1" parent="1">
          <mxGeometry x="68.27" y="30" width="180" height="30" as="geometry" />
        </mxCell>
      </root>
    </mxGraphModel>
  </diagram>
</mxfile>
